<?xml version="1.0" encoding="UTF-8" standalone="no"?>
<!DOCTYPE svg PUBLIC "-//W3C//DTD SVG 1.1//EN" "http://www.w3.org/Graphics/SVG/1.1/DTD/svg11.dtd">
<svg width="100%" height="100%" viewBox="0 0 381 60" version="1.1" xmlns="http://www.w3.org/2000/svg" xmlns:xlink="http://www.w3.org/1999/xlink" xml:space="preserve" style="fill-rule:evenodd;clip-rule:evenodd;stroke-linejoin:round;stroke-miterlimit:1.41421;">
    <g>
        <g>
            <path d="M11.778,41.177C11.24,39.624 11,37.652 11,35.024C11,32.394 11.24,30.424 11.778,28.87C13.213,24.45 16.98,22 21.945,22C25.653,22 28.525,23.494 30.498,25.883C30.678,26.063 30.678,26.421 30.438,26.6L27.208,29.468C26.968,29.648 26.67,29.648 26.491,29.348C25.236,27.974 23.981,27.198 21.947,27.198C19.735,27.198 18.06,28.273 17.342,30.424C16.982,31.678 16.862,33.112 16.862,35.024C16.862,36.934 16.982,38.429 17.402,39.684C18.122,41.774 19.795,42.91 22.008,42.91C24.041,42.91 25.358,42.133 26.554,40.76C26.734,40.52 27.034,40.52 27.272,40.7L30.502,43.567C30.742,43.747 30.682,44.045 30.562,44.284C28.588,46.614 25.717,48.107 22.009,48.107C17.045,48.047 13.217,45.657 11.782,41.177M122.78,41.177C122.242,39.624 122.002,37.652 122.002,35.024C122.002,32.394 122.242,30.424 122.78,28.87C124.215,24.45 127.983,22 132.947,22C136.655,22 139.587,23.494 141.5,25.883C141.68,26.063 141.68,26.421 141.44,26.6L138.21,29.468C137.97,29.648 137.672,29.648 137.493,29.348C136.238,27.974 134.983,27.198 132.949,27.198C130.737,27.198 129.062,28.273 128.344,30.424C127.927,31.678 127.804,33.112 127.804,35.024C127.804,36.934 127.927,38.429 128.344,39.684C129.064,41.774 130.738,42.91 132.95,42.91C134.983,42.91 136.3,42.133 137.496,40.76C137.676,40.52 137.976,40.52 138.214,40.7L141.444,43.567C141.684,43.747 141.624,44.045 141.504,44.284C139.53,46.614 136.659,48.107 132.951,48.107C127.987,48.047 124.219,45.657 122.784,41.177M252.924,47.45C252.626,47.45 252.387,47.27 252.387,46.912L252.387,32.574C252.387,29.348 250.772,27.138 247.722,27.138C244.732,27.138 242.997,29.348 242.997,32.574L242.997,46.912C242.997,47.212 242.817,47.45 242.459,47.45L237.734,47.45C237.434,47.45 237.196,47.27 237.196,46.912L237.196,32.574C237.196,29.348 235.581,27.138 232.53,27.138C229.54,27.138 227.805,29.348 227.805,32.574L227.805,46.912C227.805,47.212 227.628,47.45 227.269,47.45L222.544,47.45C222.244,47.45 222.004,47.27 222.004,46.912L222.004,23.075C222.004,22.777 222.184,22.538 222.544,22.538L227.268,22.538C227.568,22.538 227.806,22.718 227.806,23.075L227.806,24.868L227.866,24.868C228.944,23.315 231.096,22 234.386,22C237.316,22 239.65,23.195 241.146,25.286L241.206,25.286C243.118,23.196 245.571,22 249.099,22C254.841,22 258.071,25.943 258.071,31.26L258.071,46.972C258.071,47.272 257.891,47.51 257.531,47.51L252.927,47.45L252.924,47.45ZM264.744,56.232C264.444,56.232 264.204,56.052 264.204,55.694L264.204,51.572C264.204,51.272 264.384,51.035 264.744,51.035L265.641,51.035C267.615,51.035 268.571,50.138 269.349,48.107L270.067,46.017L261.035,22.537C260.918,22.239 261.155,22 261.455,22L266.54,22C266.84,22 267.078,22.18 267.138,22.538L272.7,38.788L272.82,38.788L278.143,22.538C278.263,22.238 278.443,22 278.74,22L283.585,22C283.883,22 284.123,22.18 284.003,22.538L274.673,48.525C272.52,54.439 270.486,56.292 266.36,56.292L264.745,56.232L264.744,56.232ZM49.67,39.622C50.09,38.309 50.208,37.112 50.208,35.022C50.208,32.932 50.088,31.797 49.67,30.422C48.952,28.332 47.337,27.197 45.065,27.197C42.792,27.197 41.118,28.392 40.4,30.423C39.98,31.737 39.86,32.873 39.86,35.023C39.86,37.113 39.98,38.309 40.4,39.623C41.118,41.713 42.733,42.85 45.065,42.85C47.337,42.91 48.952,41.714 49.67,39.623M34.838,41.176C34.3,39.444 34,37.772 34,35.023C34,32.275 34.24,30.663 34.838,28.87C36.213,24.51 39.98,22 45.005,22C49.969,22 53.737,24.51 55.112,28.87C55.652,30.602 55.95,32.275 55.95,35.023C55.95,37.773 55.71,39.383 55.112,41.176C53.737,45.536 49.969,48.046 45.005,48.046C40.041,48.046 36.273,45.536 34.838,41.176M155.288,22C151.22,22 148.528,22.956 146.555,24.45C146.375,24.63 146.315,24.868 146.435,25.106L148.349,28.512C148.526,28.75 148.826,28.81 149.064,28.632C150.261,27.676 151.934,26.899 154.686,26.899C158.694,26.899 160.07,28.091 160.189,30.779L160.189,39.084C160.189,41.951 158.216,43.324 154.687,43.324C151.937,43.324 150.442,42.31 150.442,40.219C150.442,37.889 152.056,36.874 155.764,36.874L156.901,36.874C157.199,36.874 157.439,36.694 157.439,36.337L157.439,33.051C157.439,32.753 157.259,32.513 156.901,32.513L154.867,32.513C148.767,32.513 144.999,35.023 144.999,40.399C144.999,45.596 148.767,47.987 153.312,47.987C156.782,47.987 159.112,46.792 160.25,45.119L160.31,45.119L160.31,46.911C160.31,47.211 160.49,47.449 160.85,47.449L165.156,47.449C165.456,47.449 165.696,47.269 165.696,46.911L165.696,30.721C165.572,24.63 162.82,22 155.286,22M94.732,32.514C94.612,32.514 94.492,32.574 94.492,32.754L94.492,36.637C94.492,36.757 94.552,36.877 94.732,36.877L107.412,36.877C107.77,36.877 107.95,36.697 107.95,36.339C107.95,32.335 107.71,30.603 107.112,28.869C105.736,24.629 102.028,21.999 96.944,21.999C92.04,21.999 88.214,24.509 86.837,28.869C86.3,30.485 86,32.455 86,35.025C86,37.593 86.36,39.505 86.897,41.118C88.273,45.478 91.981,48.048 97.184,48.048C101.729,48.048 105.198,46.315 107.351,43.808C107.531,43.568 107.531,43.268 107.291,43.09L104.301,40.4C104.064,40.22 103.765,40.22 103.526,40.52C102.27,41.893 100.536,42.91 97.724,42.91C94.974,42.91 92.999,41.594 92.222,39.145C92.102,38.785 91.982,38.428 91.922,38.069C91.742,36.993 91.625,35.979 91.625,34.484C91.685,33.05 91.745,32.154 91.925,31.019L91.925,30.899C91.985,30.602 92.043,30.363 92.103,30.124C92.763,28.092 94.616,26.898 96.948,26.898C99.281,26.898 101.076,28.09 101.733,30.122C101.913,30.719 102.031,31.376 102.031,32.212C102.031,32.392 101.911,32.512 101.731,32.512L94.736,32.512L94.732,32.514ZM81.232,12L76.507,12C76.207,12 75.969,12.18 75.969,12.538L75.969,36.016C75.909,37.45 75.729,38.406 75.489,39.242C74.829,41.332 73.216,42.409 70.883,42.409C68.61,42.409 66.995,41.271 66.338,39.239C65.978,38.105 65.798,36.849 65.798,34.579C65.798,32.309 65.978,31.055 66.338,29.919C66.994,27.889 68.548,26.754 70.763,26.694L72.8,26.694C72.918,26.694 72.978,26.574 72.978,26.456L72.978,21.736C72.978,21.616 72.918,21.556 72.798,21.496L69.27,21.496C65.144,21.556 62.153,23.528 60.897,27.471C60.299,29.383 60,31.115 60,34.461C60,37.806 60.24,39.539 60.897,41.451C62.153,45.453 65.263,47.425 69.45,47.425C72.8,47.425 74.832,46.17 75.97,44.497L76.03,44.497L76.03,46.347C76.03,46.647 76.208,46.887 76.567,46.887L81.292,46.887C81.592,46.887 81.83,46.707 81.83,46.347L81.83,12.3C81.77,12.18 81.53,12.002 81.232,12.002M204.732,32.514C204.612,32.514 204.492,32.574 204.492,32.754L204.492,36.637C204.492,36.757 204.552,36.877 204.732,36.877L217.412,36.877C217.77,36.877 217.95,36.697 217.95,36.339C217.95,32.335 217.71,30.603 217.112,28.869C215.736,24.629 212.028,21.999 206.944,21.999C202.04,21.999 198.214,24.509 196.837,28.869C196.299,30.484 196,32.454 196,35.024C196,37.592 196.36,39.504 196.897,41.117C198.273,45.477 201.981,48.047 207.184,48.047C211.729,48.047 215.198,46.314 217.351,43.807C217.531,43.567 217.531,43.267 217.291,43.089L214.304,40.399C214.064,40.219 213.764,40.219 213.526,40.519C212.27,41.893 210.536,42.909 207.724,42.909C204.974,42.909 202.999,41.594 202.222,39.145C202.102,38.785 201.982,38.428 201.922,38.069C201.742,36.994 201.625,35.979 201.625,34.485C201.685,33.051 201.745,32.155 201.925,31.02L201.925,30.9C201.985,30.604 202.043,30.365 202.103,30.126C202.763,28.094 204.616,26.9 206.948,26.9C209.281,26.9 211.076,28.093 211.733,30.125C211.913,30.722 212.031,31.379 212.031,32.215C212.031,32.395 211.911,32.515 211.731,32.515L204.736,32.515L204.732,32.514ZM191.232,12L186.507,12C186.207,12 185.969,12.18 185.969,12.538L185.969,36.076C185.909,37.509 185.729,38.466 185.489,39.302C184.829,41.392 183.216,42.528 180.883,42.528C178.55,42.528 176.995,41.392 176.338,39.302C175.978,38.167 175.798,36.912 175.798,34.642C175.798,32.372 175.978,31.117 176.338,29.982C176.994,27.952 178.548,26.815 180.763,26.756L182.796,26.756C183.094,26.756 183.333,26.576 183.333,26.218L183.333,22.096C183.333,21.796 183.153,21.558 182.795,21.558L179.325,21.558C175.198,21.618 172.148,23.59 170.892,27.532C170.294,29.444 169.995,31.177 169.995,34.582C169.995,37.928 170.235,39.72 170.892,41.632C172.148,45.634 175.258,47.606 179.445,47.606C182.795,47.606 184.827,46.351 186.025,44.679L186.083,44.679L186.083,46.529C186.083,46.829 186.263,47.066 186.621,47.066L191.346,47.066C191.646,47.066 191.886,46.886 191.886,46.528L191.886,12.477C191.766,12.177 191.526,11.999 191.228,11.999M123,55L123,59C123,59.752 123.175,60 124,60L140,60C140.767,60 141,59.814 141,59L141,55C141,54.248 140.825,54 140,54L123,54C123.175,54 123,54.186 123,55" style="fill:rgb(31,64,86);"/>
            <path d="M6.99,54L6,54C6.12,53.94 6,53.762 6,54L6,6C6,6.238 6.12,6.06 6,6L113,6C112.88,6.06 113,6.238 113,6L113,53C113,53.703 112.88,53.88 113,54L6.99,54ZM119,0C118.88,0.18 118.88,0.12 119,0C118.88,0.12 118.88,0.12 119,0C118.76,0.06 118.64,0 118,0L0,0C0.12,0.12 0,0.3 0,1L0,60C0,59.7 0.06,59.82 0,60L118,60C118.64,60 118.76,59.94 119,60C118.94,59.76 119,59.64 119,59L119,0Z" style="fill:rgb(31,64,86);"/>
        </g>
        <path d="M291.736,53.094C291.623,53.094 291.396,53.094 291.283,52.981C290.717,52.757 290.377,52.077 290.603,51.511L302.263,18.228C302.491,17.662 303.17,17.323 303.736,17.548C304.302,17.776 304.642,18.455 304.416,19.021L292.756,52.301C292.756,52.754 292.188,53.093 291.736,53.093L291.736,53.094ZM323.208,22.074L315.396,22.074C314.943,22.074 314.151,22.074 313.698,22.528C313.245,23.094 313.245,23.774 313.245,24.226L313.245,46.302C313.245,46.982 313.245,47.434 313.585,47.887C313.925,48.34 314.491,48.679 315.17,48.679C315.85,48.679 316.415,48.339 316.755,47.885C317.095,47.432 317.095,46.979 317.095,46.3L317.095,38.15L323.321,38.15C328.304,38.15 331.811,34.867 331.811,30C331.811,25.13 328.304,22.074 323.211,22.074L323.208,22.074ZM327.848,30C327.848,32.83 326.151,34.528 323.208,34.528L317.321,34.528L317.321,25.585L323.211,25.585C324.794,25.585 327.851,26.265 327.851,30L327.848,30ZM349.132,36.906C352.415,35.886 354.34,33.283 354.34,29.66C354.34,25.02 351.057,21.962 346.19,21.962L338.038,21.962C337.585,21.962 336.792,21.962 336.34,22.415C335.887,22.981 335.887,23.66 335.887,24.113L335.887,46.19C335.887,46.868 335.887,47.32 336.227,47.774C336.907,48.906 338.83,48.906 339.509,47.774C339.849,47.321 339.849,46.868 339.849,46.189L339.849,37.356L344.941,37.356L350.601,47.319C350.941,47.773 351.394,48.679 352.526,48.679C352.866,48.679 353.206,48.565 353.546,48.339C354.111,47.886 354.564,47.433 354.564,46.754C354.564,46.301 354.451,45.848 354.111,45.282L349.131,36.905L349.132,36.906ZM339.736,25.586L345.962,25.586C348.792,25.586 350.492,27.056 350.492,29.66C350.492,32.264 348.906,33.736 345.962,33.736L339.736,33.736L339.736,25.586ZM374.15,24.453C372.34,22.643 370.075,21.736 367.358,21.736C364.642,21.736 362.378,22.642 360.566,24.453C357.962,27.057 357.849,29.547 357.849,35.321C357.849,41.095 357.959,43.474 360.679,46.191C362.489,48.001 364.753,48.908 367.469,48.908C370.187,48.908 372.449,48.002 374.262,46.191C376.866,43.586 376.979,41.095 376.979,35.321C376.979,29.548 376.867,27.171 374.149,24.454L374.15,24.453ZM373.02,35.321C373.02,40.531 372.792,42.115 371.434,43.587C370.302,44.719 369.057,45.172 367.472,45.172C365.887,45.172 364.528,44.607 363.509,43.588C362.149,42.228 361.923,40.531 361.923,35.324C361.923,30.117 362.149,28.532 363.507,27.061C364.639,25.928 365.884,25.475 367.469,25.475C369.054,25.475 370.412,26.041 371.431,27.06C372.789,28.53 373.016,30.115 373.016,35.323L373.02,35.321Z" style="fill:white;"/>
    </g>
</svg>
